<svg version="1.0" xmlns="http://www.w3.org/2000/svg" width="6800" height="4400" viewBox="0 0 6800 4400">
 <title>Allahu akbar — arabic calligraphy</title>
 <desc>Takbir</desc>
<metadata></metadata>
<g transform="translate(0,4380) scale(1,-1)"
fill="#005aff" stroke="none">
<path d="M5555 4359 c-106 -19 -259 -62 -330 -94 -17 -8 -64 -25 -105 -38
-110 -36 -315 -115 -395 -152 -38 -17 -158 -69 -265 -115 -107 -45 -202 -89
-211 -96 -8 -8 -19 -14 -23 -14 -28 0 -638 -307 -722 -364 -17 -12 -64 -43
-105 -71 -112 -75 -181 -149 -208 -220 -25 -67 -33 -209 -18 -346 l8 -76 49
-23 c27 -12 81 -55 122 -94 40 -39 89 -83 108 -98 104 -80 161 -122 210 -155
30 -20 71 -47 91 -60 19 -12 38 -23 41 -23 6 0 81 -45 162 -98 28 -18 55 -32
60 -32 6 1 53 40 105 88 l93 87 -93 56 c-52 31 -143 82 -204 114 -60 32 -156
88 -212 124 -56 36 -123 79 -148 94 -71 45 -61 59 38 57 180 -4 207 -2 207 19
0 10 -8 22 -17 26 -10 3 -72 27 -138 52 -374 141 -405 154 -405 173 0 9 139
103 215 145 28 16 57 34 66 42 20 17 479 245 629 313 63 28 161 74 217 101 55
27 104 49 107 49 3 0 25 9 49 19 23 11 87 38 142 62 55 23 134 57 175 76 102
47 253 105 395 152 33 11 87 29 120 41 113 41 160 51 281 57 121 6 164 -2 164
-30 0 -7 -35 -52 -78 -100 -42 -49 -87 -103 -100 -120 -13 -18 -35 -46 -50
-62 -30 -33 -111 -136 -184 -231 -46 -59 -109 -167 -150 -254 -19 -41 -28 -68
-45 -138 -6 -25 15 -102 27 -102 4 0 13 15 21 33 7 17 25 60 41 95 15 34 28
66 28 71 0 4 19 37 41 72 23 35 51 81 63 101 12 21 71 96 131 168 61 72 131
161 158 198 26 37 58 78 70 92 67 73 122 218 107 283 -16 71 -63 118 -139 141
-59 17 -118 19 -196 5z"/>
<path d="M5148 3798 c-46 -46 -96 -109 -112 -139 -16 -30 -37 -70 -47 -89 -28
-52 -42 -142 -30 -186 15 -55 37 -74 87 -74 37 0 47 5 76 40 19 21 40 52 47
67 7 15 17 36 22 45 13 26 12 27 -20 15 -59 -22 -111 26 -111 102 1 64 48 150
128 233 31 32 53 60 50 64 -4 3 -44 -32 -90 -78z"/>
<path d="M6018 3783 c-113 -93 -238 -305 -238 -404 0 -81 37 -139 88 -139 42
0 127 91 146 156 6 18 3 20 -24 16 -52 -8 -77 5 -90 44 -28 84 6 175 108 292
59 67 62 77 10 35z"/>
<path d="M4476 3605 c-61 -33 -126 -96 -138 -136 -10 -35 -9 -43 9 -67 11 -15
29 -31 41 -37 30 -14 28 -26 -14 -63 -62 -55 -28 -55 79 1 137 71 212 121 233
152 24 37 10 42 -34 11 -43 -30 -144 -53 -186 -42 -31 8 -66 40 -66 61 0 20
69 65 99 65 13 0 32 -7 42 -16 10 -9 22 -13 28 -10 13 9 25 66 15 76 -19 18
-79 21 -108 5z"/>
<path d="M6265 3470 c-10 -17 -55 -164 -61 -202 -5 -26 1 -56 19 -105 14 -37
34 -106 43 -153 9 -47 22 -114 30 -150 7 -36 13 -84 14 -107 0 -23 5 -45 10
-48 6 -3 10 -20 10 -37 0 -18 4 -45 10 -62 11 -38 36 -159 56 -281 8 -49 21
-119 29 -155 16 -67 42 -205 74 -390 10 -58 26 -141 35 -185 9 -44 22 -105 27
-135 6 -30 14 -71 19 -90 31 -129 87 -523 103 -725 l12 -160 19 40 c41 84 65
236 66 408 0 149 -6 192 -60 452 -10 50 -22 110 -25 135 -4 25 -26 144 -50
265 -24 121 -46 240 -50 265 -8 54 -61 336 -75 400 -5 25 -15 77 -21 115 -6
39 -19 108 -30 155 -10 47 -20 116 -21 155 -4 93 11 96 99 19 l66 -58 -5 46
c-5 44 -17 69 -119 245 -10 17 -30 51 -46 75 -15 24 -33 56 -40 72 -17 38 -75
126 -83 126 -4 0 -13 18 -20 40 -13 40 -23 49 -35 30z"/>
<path d="M4685 3293 c-9 -32 -21 -69 -26 -83 -20 -60 -21 -119 -3 -172 10 -29
21 -57 25 -63 3 -5 12 -41 18 -80 7 -38 17 -84 22 -101 5 -17 16 -73 24 -125
7 -52 19 -114 25 -139 6 -25 15 -72 20 -105 5 -33 14 -80 20 -105 6 -25 20
-97 31 -160 12 -63 25 -135 30 -160 38 -193 52 -266 64 -340 7 -47 30 -164 50
-260 20 -96 43 -220 51 -275 9 -55 20 -122 24 -150 16 -85 40 -336 40 -412 0
-82 13 -101 30 -46 6 21 15 47 20 58 25 60 50 223 50 327 0 87 -15 213 -36
318 -9 41 -27 134 -40 205 -42 228 -61 329 -72 370 -6 22 -14 67 -18 100 -3
33 -13 89 -21 125 -8 36 -22 110 -33 165 -10 55 -23 122 -30 150 -6 27 -15 79
-20 115 -5 36 -16 99 -25 140 -8 41 -20 99 -26 128 -9 45 -8 57 5 77 9 14 18
25 21 25 2 0 32 -25 67 -55 l63 -55 3 38 c2 29 -6 53 -34 103 -21 35 -51 88
-68 118 -17 29 -42 72 -55 95 -13 22 -31 55 -40 71 -9 17 -38 63 -64 103 -26
40 -47 76 -47 81 0 5 -6 14 -14 20 -11 10 -17 1 -31 -46z"/>
<path d="M3858 3283 c-31 -19 -45 -44 -53 -90 l-5 -33 53 0 c76 0 167 -20 167
-36 0 -8 -17 -24 -37 -37 -43 -27 -170 -77 -195 -77 -9 0 -20 -4 -23 -10 -16
-26 178 14 260 55 55 27 175 137 175 161 0 17 -45 36 -149 63 -96 25 -157 26
-193 4z"/>
<path d="M5515 3207 c-10 -66 1 -101 54 -165 78 -94 100 -158 108 -307 6 -124
6 -126 21 -88 10 26 15 83 15 178 2 133 0 143 -27 205 -38 87 -71 137 -122
183 l-43 38 -6 -44z"/>
<path d="M2890 3090 c-30 -11 -86 -36 -125 -54 -295 -144 -376 -186 -495 -254
-299 -171 -615 -398 -777 -560 -93 -93 -100 -104 -109 -177 l-7 -60 59 55 c98
92 299 250 471 368 89 62 163 112 166 112 5 0 227 128 242 140 25 20 471 246
531 269 23 9 38 28 61 74 29 60 48 107 41 107 -2 -1 -28 -10 -58 -20z"/>
<path d="M4334 2936 c-38 -47 -74 -142 -74 -193 0 -30 8 -56 26 -83 15 -22 30
-40 34 -40 4 0 33 -16 64 -36 86 -57 84 -62 -109 -262 -134 -138 -388 -330
-580 -437 -22 -13 -65 -39 -95 -59 -45 -30 -50 -36 -25 -30 28 7 60 19 215 85
184 77 397 218 493 326 49 56 157 216 157 233 0 6 7 24 15 40 22 43 57 40 92
-7 15 -21 30 -40 34 -43 12 -11 30 -70 24 -79 -3 -6 -3 -16 1 -22 14 -22 34
54 34 128 l0 74 -58 58 -58 57 -13 95 c-18 127 -29 162 -62 198 -39 43 -79 42
-115 -3z m94 -105 c11 -6 23 -19 25 -28 13 -47 17 -92 8 -98 -15 -9 -106 41
-130 71 -26 33 -27 51 -1 59 11 3 20 10 20 15 0 9 45 -2 78 -19z"/>
<path d="M2780 2708 c-59 -46 -154 -170 -195 -254 -61 -126 -57 -252 8 -279
18 -7 44 -11 59 -8 28 5 88 64 88 85 0 6 6 19 14 27 8 9 18 29 21 44 7 27 6
27 -18 16 -55 -25 -117 30 -117 103 0 18 11 56 24 83 23 50 110 164 150 197
37 31 10 19 -34 -14z"/>
<path d="M5900 2454 l-23 -45 20 -62 c24 -70 35 -143 26 -175 -8 -32 -70 -49
-109 -31 -37 18 -55 56 -61 133 -4 49 -34 152 -51 176 -1 2 -14 -9 -27 -25
-16 -19 -23 -37 -19 -50 24 -89 33 -137 34 -183 0 -46 -4 -58 -29 -83 -25 -24
-38 -29 -79 -29 -47 0 -52 3 -72 35 -19 31 -21 46 -18 150 2 63 0 115 -3 115
-28 0 -111 -109 -125 -163 l-7 -29 26 26 c14 14 31 26 37 26 6 0 10 -41 10
-112 0 -127 13 -164 69 -193 64 -33 152 -3 190 65 12 22 25 40 27 40 3 0 22
-12 41 -27 31 -24 46 -28 104 -28 53 0 72 4 89 20 36 32 50 78 50 163 0 76
-32 236 -51 257 -5 5 -9 21 -9 36 0 44 -15 42 -40 -7z"/>
<path d="M3096 2434 c-10 -32 -29 -83 -42 -112 -13 -29 -24 -57 -24 -62 0 -6
-9 -29 -19 -53 -11 -23 -23 -53 -26 -66 -4 -14 -23 -49 -42 -78 -61 -95 -171
-146 -318 -147 -110 -1 -166 29 -252 137 -37 46 -65 73 -68 65 -3 -7 -20 -62
-39 -123 -24 -81 -30 -114 -23 -124 6 -7 16 -21 22 -31 27 -48 102 -188 112
-210 47 -99 91 -204 113 -274 15 -45 23 -133 13 -149 -9 -16 -203 -175 -273
-224 -56 -39 -124 -81 -170 -106 -19 -11 -60 -36 -90 -56 -30 -21 -109 -66
-175 -101 -66 -35 -138 -74 -160 -87 -35 -21 -288 -146 -400 -198 -22 -11 -42
-22 -45 -25 -7 -8 -151 -68 -230 -95 -36 -12 -114 -39 -175 -60 -60 -20 -118
-42 -128 -47 -23 -12 -285 -92 -402 -123 -184 -48 -210 -56 -219 -66 -6 -6 -6
-9 0 -10 39 -5 351 4 399 11 33 4 112 11 175 15 63 4 160 13 215 21 338 48
326 44 695 238 102 54 192 104 200 111 8 7 75 49 147 93 73 44 170 109 215
143 46 35 108 82 139 106 111 84 258 234 297 302 l37 66 3 260 c2 153 7 264
13 270 5 5 51 15 102 22 116 14 178 35 247 84 87 61 141 162 163 301 7 45 18
83 24 85 17 6 65 -63 79 -115 28 -102 44 -171 59 -262 41 -242 57 -311 77
-335 4 -5 8 -16 8 -24 0 -14 42 -82 65 -106 24 -26 124 -84 160 -94 51 -14
239 -14 342 -1 130 17 364 95 508 169 183 93 324 320 327 526 1 69 -3 89 -21
120 -37 64 -87 119 -143 158 -120 85 -148 99 -148 77 0 -5 -35 -45 -77 -88
l-78 -78 30 -17 c17 -9 79 -42 139 -72 134 -70 214 -122 221 -146 9 -27 -8
-52 -67 -101 -149 -125 -338 -207 -591 -258 -260 -52 -427 -31 -541 69 -70 61
-122 229 -176 571 -6 41 -16 91 -21 110 -16 55 -77 171 -113 214 l-32 39 -18
-59z"/>
<path d="M1892 1814 c-31 -21 -68 -99 -75 -157 -10 -76 8 -107 92 -157 72 -43
80 -55 60 -92 -21 -39 -230 -239 -326 -311 -52 -40 -110 -84 -129 -98 -18 -15
-77 -53 -131 -84 -154 -92 -179 -108 -165 -113 7 -2 27 5 45 16 19 10 58 28
88 40 127 48 257 117 350 187 108 81 165 140 207 217 76 141 89 158 111 158
26 0 87 -71 96 -110 9 -42 22 -23 30 45 8 65 -3 93 -65 155 -46 46 -50 54 -50
98 -1 146 -72 253 -138 206z m66 -104 c18 -19 42 -82 42 -109 0 -27 -47 -8
-92 36 -53 53 -59 69 -25 83 35 14 55 11 75 -10z"/>
<path d="M6060 1798 c0 -13 -9 -54 -20 -93 -25 -89 -25 -116 0 -168 11 -23 26
-73 32 -112 6 -38 15 -74 19 -79 5 -6 9 -20 9 -32 0 -28 52 -189 80 -245 11
-24 20 -48 20 -54 0 -14 58 -134 75 -155 7 -8 17 -30 24 -49 6 -19 31 -69 56
-112 25 -44 48 -98 51 -122 5 -37 2 -47 -21 -75 -15 -18 -60 -48 -100 -67 -65
-32 -80 -35 -160 -35 -82 0 -92 2 -151 35 -35 20 -85 57 -111 83 -64 64 -139
208 -153 293 -5 35 -14 84 -20 109 -5 25 -14 74 -20 110 -5 36 -15 90 -20 120
-19 99 -40 264 -40 317 0 54 -38 174 -65 203 -8 9 -20 31 -26 48 -6 18 -14 32
-19 32 -4 0 -18 -26 -30 -57 -12 -32 -27 -69 -33 -82 -17 -35 -11 -158 12
-264 11 -51 28 -132 37 -182 9 -49 23 -124 31 -165 8 -41 15 -127 16 -190 1
-111 0 -117 -33 -185 -45 -91 -168 -216 -255 -256 -152 -72 -322 -63 -403 20
-99 101 -127 242 -98 491 9 80 21 172 27 205 23 141 32 227 36 333 4 96 2 112
-11 112 -24 0 -88 -36 -121 -68 -88 -85 -190 -270 -221 -400 -9 -37 -19 -76
-24 -87 -11 -28 -26 -72 -40 -125 -7 -25 -16 -58 -21 -75 -5 -16 -18 -61 -29
-100 -11 -38 -25 -88 -31 -110 -12 -44 -19 -61 -43 -117 -9 -20 -16 -40 -16
-45 0 -6 -15 -26 -34 -45 -44 -45 -92 -53 -158 -26 -59 25 -79 47 -114 133
-29 70 -29 71 -29 280 0 133 4 227 12 255 7 25 15 59 18 75 l7 30 -21 -25
c-11 -14 -21 -31 -21 -38 0 -7 -8 -31 -19 -55 -31 -71 -61 -206 -69 -317 -8
-125 1 -263 21 -293 8 -12 17 -40 21 -61 4 -21 21 -64 38 -94 115 -203 320
-217 417 -27 22 45 53 155 71 260 7 39 18 97 26 130 7 33 16 78 19 100 15 102
45 218 75 290 4 11 14 36 21 55 26 74 80 160 100 160 18 0 19 -8 19 -107 -1
-60 -8 -157 -16 -218 -28 -197 -29 -317 -4 -440 22 -109 61 -210 102 -266 30
-40 112 -93 170 -109 31 -8 83 -11 150 -7 188 8 315 71 409 199 60 83 109 212
109 288 0 27 4 52 10 55 15 9 50 -14 50 -33 0 -10 4 -22 10 -28 5 -5 32 -55
59 -110 60 -122 138 -211 220 -251 47 -23 72 -28 157 -31 112 -5 188 11 254
53 64 40 125 132 150 225 18 67 15 302 -5 375 -9 33 -20 74 -24 90 -5 17 -17
50 -28 75 -11 25 -24 56 -28 70 -8 26 -64 143 -140 292 -69 135 -58 171 31
103 55 -42 64 -43 64 -6 0 20 -21 56 -70 120 -38 51 -70 96 -70 101 0 4 -22
35 -49 67 -26 32 -56 73 -65 91 -19 37 -36 42 -36 10z"/>
<path d="M1309 1737 c-34 -29 -62 -72 -78 -122 -7 -22 -16 -49 -21 -60 -11
-27 -26 -88 -40 -160 -7 -33 -14 -66 -16 -73 -8 -27 -30 -4 -67 68 -48 94 -77
132 -113 149 -16 7 -37 17 -46 22 -36 18 -75 10 -102 -22 -30 -36 -33 -75 -10
-136 31 -81 121 -96 175 -30 16 20 17 20 49 -24 17 -24 48 -75 67 -113 19 -37
36 -66 39 -63 3 2 13 54 24 114 32 184 79 273 145 273 17 0 41 -7 53 -16 18
-12 26 -13 37 -4 39 32 41 164 4 201 -25 25 -68 24 -100 -4z"/>
<path d="M2857 1319 c-42 -45 -77 -84 -77 -88 0 -3 33 -28 72 -56 40 -27 92
-65 116 -84 l45 -33 84 86 c47 47 83 90 81 95 -3 11 -225 161 -237 161 -4 0
-42 -37 -84 -81z"/>
<path d="M752 1123 c-83 -56 -213 -215 -276 -340 -44 -89 -60 -144 -60 -223
-1 -62 3 -82 22 -112 38 -62 101 -71 164 -25 43 32 128 166 128 202 0 17 -16
20 -25 5 -3 -5 -24 -10 -47 -10 -91 0 -128 103 -81 230 22 61 122 198 185 254
28 25 49 48 47 50 -2 2 -28 -12 -57 -31z"/>
<path d="M3333 1008 c3 -13 8 -33 12 -45 6 -17 1 -25 -22 -36 -69 -37 -136
-140 -131 -202 3 -34 9 -44 46 -68 25 -17 42 -36 42 -48 0 -10 -4 -19 -9 -19
-5 0 -32 -19 -59 -43 -171 -145 -375 -249 -711 -363 -82 -28 -377 -104 -403
-104 -9 0 -20 -5 -24 -11 -14 -23 350 8 496 42 123 29 267 77 325 109 28 15
77 42 110 60 109 60 218 156 299 263 32 41 47 44 120 22 59 -18 139 -19 169
-3 32 17 45 37 57 92 9 43 8 54 -12 94 -12 25 -52 78 -90 118 -37 39 -68 76
-68 81 0 12 -117 83 -138 83 -10 0 -13 -7 -9 -22z m71 -157 c10 -4 24 -21 31
-38 12 -27 11 -33 -12 -62 -19 -24 -32 -31 -58 -31 -47 0 -81 15 -100 44 -16
24 -16 27 5 53 30 38 87 53 134 34z m116 -94 c70 -67 84 -85 72 -100 -10 -12
-23 -12 -75 -2 -71 13 -87 20 -87 39 0 17 39 96 48 96 4 0 23 -15 42 -33z"/>
<path d="M2569 837 c-69 -67 -148 -174 -180 -242 -55 -119 -51 -233 9 -268 58
-34 116 3 168 105 13 26 24 50 24 52 0 3 -20 3 -44 0 -41 -6 -45 -4 -70 28
-17 23 -26 47 -26 71 0 49 39 132 96 203 26 33 52 65 57 72 18 23 0 12 -34
-21z"/>
<path d="M2 115 c0 -16 2 -22 5 -12 2 9 2 23 0 30 -3 6 -5 -1 -5 -18z"/>
</g>
</svg>
